<svg xmlns="http://www.w3.org/2000/svg" version="1.1" xmlns:xlink="http://www.w3.org/1999/xlink" xmlns:svgjs="http://svgjs.dev/svgjs" width="100%" height="100%" viewBox="0 0 1000 600"><rect width="1000" height="600" x="0" y="0" fill="#cc313d"/><g><circle r="166.66666666666666" cx="301.97011820475257" cy="324.19238487739733" fill="#f7c5cc" transform="matrix(0.9238489948969522,0,0,0.9238489948969522,0,0.4951837261064327)"/><path d="M223.08021090810308 399.19237621801693L223.08021090810308 399.19237621801693Q221.52423939923202 399.19237621801693 221.52423939923202 398.09022973256657L221.52423939923202 398.09022973256657Q221.52423939923202 397.1609689703241 222.69121803088532 397.0096939625172Q223.85819666253863 396.8584189547103 226.19215392584525 396.0804332002748L226.19215392584525 396.0804332002748Q233.66946145458684 392.9684901825326 241.12515826792742 380.19655738054917L241.12515826792742 380.19655738054917Q224.16074667815246 379.74273235712843 214.67364261711907 371.1848890583375L214.67364261711907 371.1848890583375Q204.55982780945703 362.00033501291796 204.55982780945703 345.3600841541578L204.55982780945703 345.3600841541578Q204.55982780945703 325.58627956225445 219.0390071281185 305.0560999313166L219.0390071281185 305.0560999313166Q232.8914757001513 285.6064560704281 251.39024808339636 276.11935200939473L251.39024808339636 276.11935200939473Q247.0464942877979 275.643916270573 244.38837629347648 275.643916270573L244.38837629347648 275.643916270573Q241.27643327573432 275.643916270573 237.94838310398228 276.0329091477908Q234.5987222168293 276.42190202500854 231.1626184680723 277.1998877794441L231.1626184680723 277.1998877794441Q222.45350016147447 279.23129502713687 215.60290337936152 283.2724988071215L215.60290337936152 283.2724988071215Q206.11579931832813 288.8696740959772 206.11579931832813 295.72027087809016L206.11579931832813 295.72027087809016Q206.11579931832813 296.4982566325257 206.26707432613506 296.9520816559464L206.26707432613506 296.9520816559464L206.26707432613506 298.20550314920365Q206.26707432613506 300.3881854047034 204.88398854047188 300.3881854047034L204.88398854047188 300.3881854047034Q202.85258129277906 300.3881854047034 201.77204552272968 297.42751739476813L201.77204552272968 297.42751739476813Q200.66989903727935 295.24483513926845 200.66989903727935 292.9108778759618L200.66989903727935 292.9108778759618Q200.66989903727935 283.2724988071215 217.93686064266814 277.97787353387963L217.93686064266814 277.97787353387963Q230.55751843684467 274.23921976950885 243.30784052342713 274.23921976950885L243.30784052342713 274.23921976950885Q245.33924777111991 274.23921976950885 247.97575505004036 274.4769376389197Q250.6122623289608 274.71465550833057 253.72420534670297 275.0172055239444L253.72420534670297 275.0172055239444Q257.61413411888066 273.3099590072664 261.50406289105837 271.90526250620223Q265.3939916632361 270.50056600513807 269.28392043541373 269.5713052428956L269.28392043541373 269.5713052428956Q269.45680615862165 266.93479796397514 269.45680615862165 264.5143978390646Q269.45680615862165 262.115608429555 269.45680615862165 259.9329261740553L269.45680615862165 259.9329261740553Q269.45680615862165 258.37695466518426 269.28392043541373 255.1785687858381Q269.1326454276068 252.001793621893 269.1326454276068 250.44582211302193L269.1326454276068 250.44582211302193Q269.1326454276068 249.19240061976467 269.9106311820424 249.19240061976467L269.9106311820424 249.19240061976467Q270.23479191305717 249.19240061976467 270.537341928671 249.97038637420022L270.537341928671 249.97038637420022Q271.7907634219283 254.48702589300655 271.7907634219283 262.5694334529758L271.7907634219283 262.5694334529758Q271.7907634219283 264.1254049618468 271.7907634219283 265.7678193323219Q271.7907634219283 267.38862298739593 271.61787769872035 269.1174802194749L271.61787769872035 269.1174802194749Q274.72982071646254 268.49076947284624 277.6904887263978 268.16660874183145Q280.65115673633306 267.86405872621765 283.4605497384614 267.86405872621765L283.4605497384614 267.86405872621765Q298.24227907273666 267.86405872621765 306.86495451773055 275.5574734089691Q315.50924067812537 283.2724988071215 315.50924067812537 297.57879240257506L315.50924067812537 297.57879240257506L315.50924067812537 298.3567781570106Q315.50924067812537 301.014896151332 313.3265584226257 301.014896151332L313.3265584226257 301.014896151332Q312.07313692936845 301.014896151332 310.3658904126904 300.06402467368855L310.3658904126904 300.06402467368855Q303.21274361496364 295.72027087809016 298.4583862267465 292.99732073756576Q293.72563955393025 290.27437059704135 291.2404072828168 289.0209491037841L291.2404072828168 289.0209491037841Q285.94578200957494 286.23316681705677 280.80243174413994 284.050484561557Q275.680692194106 281.86780230605734 270.68861693647796 280.31183079718625L270.68861693647796 280.31183079718625Q269.9106311820424 287.78913832592787 268.5059346809782 295.7851030242931Q267.12284889531503 303.8026784380594 265.3939916632361 312.3605217368503L265.3939916632361 312.3605217368503Q267.90083464975055 310.3507252045585 269.6080811664285 310.3507252045585L269.6080811664285 310.3507252045585Q271.31532768310655 310.3507252045585 271.31532768310655 312.3605217368503L271.31532768310655 312.3605217368503Q271.31532768310655 315.6237397623994 268.35465967317134 319.68655425778496L268.35465967317134 319.68655425778496Q265.24271665542915 323.72775803776955 262.4549343687018 325.28372954664064L262.4549343687018 325.28372954664064Q258.86755561213795 339.914183873109 254.73990897054938 352.1242380746668Q250.6122623289608 364.3342922762246 245.94434780234758 373.97267134506484L245.94434780234758 373.97267134506484Q247.0464942877979 374.14555706827275 248.06219791164432 374.14555706827275Q249.0562908200897 374.14555706827275 250.15843730554008 374.14555706827275L250.15843730554008 374.14555706827275Q268.5059346809782 374.14555706827275 286.09705701738176 365.1122780306601L286.09705701738176 365.1122780306601Q304.46616510822093 356.07899899304743 314.10454417706126 340.99471964315836L314.10454417706126 340.99471964315836Q315.3579656703185 339.13619811867346 315.6605156859323 339.13619811867346L315.6605156859323 339.13619811867346Q315.8117906937392 339.28747312648034 315.8117906937392 339.5900231420942L315.8117906937392 339.5900231420942Q315.8117906937392 340.84344463535143 315.1850799471106 341.9239804054008L315.1850799471106 341.9239804054008Q305.54670087827026 358.2616812485471 283.76309975407514 369.4776425416595L283.76309975407514 369.4776425416595Q262.7574843843156 379.8940073649353 242.83240478460542 380.19655738054917L242.83240478460542 380.19655738054917Q232.26476495352267 399.19237621801693 223.08021090810308 399.19237621801693ZM309.13407963483417 291.9816171137193L309.13407963483417 291.9816171137193Q310.3658904126904 291.9816171137193 310.3658904126904 290.27437059704135L310.3658904126904 290.27437059704135Q310.3658904126904 288.5671240803634 309.2853546426411 286.5357168326706L309.2853546426411 286.5357168326706Q305.3954258704634 279.23129502713687 295.2816110628014 275.3413662549592L295.2816110628014 275.3413662549592Q286.87504277181733 271.90526250620223 277.236663702977 271.90526250620223L277.236663702977 271.90526250620223Q275.680692194106 271.90526250620223 274.2759956930418 271.99170536780616Q272.87129919197764 272.05653751400916 271.31532768310655 272.229423237217L271.31532768310655 272.229423237217L270.83989194428483 277.82659852607276Q280.17572099751135 279.83639505836453 289.2954428967279 283.1212237993146Q298.39355408054354 286.38444182486364 307.1026723871414 291.2036313592838L307.1026723871414 291.2036313592838Q308.3560938803986 291.9816171137193 309.13407963483417 291.9816171137193ZM257.1603090954599 275.49264126276614L268.6788204041861 277.35116278725104L268.98137041979993 272.38069824502395Q262.7574843843156 273.3099590072664 257.1603090954599 275.49264126276614L257.1603090954599 275.49264126276614ZM244.38837629347648 373.82139633725797L244.38837629347648 373.82139633725797Q249.22917654329763 364.18301726841764 253.33521246948519 351.800077343652Q257.4628591110737 339.43874813428727 260.8989628598307 324.50574379220507L260.8989628598307 324.50574379220507Q256.6848733566382 319.0598435111563 256.6848733566382 313.61394323010757L256.6848733566382 313.61394323010757Q256.6848733566382 308.6218679724795 259.34299135095966 308.6218679724795L259.34299135095966 308.6218679724795Q261.50406289105837 308.6218679724795 263.38419513094425 312.835957475672L263.38419513094425 312.835957475672Q266.9499631721071 295.24483513926845 268.5059346809782 279.68512005055766L268.5059346809782 279.68512005055766Q265.0914416476222 278.6045842805083 261.5905057526623 277.8914306722757Q258.0895698577024 277.1998877794441 254.5021911011385 276.57317703281547L254.5021911011385 276.57317703281547Q236.78140447232897 284.8284703159926 225.2628931636028 302.8734176758169L225.2628931636028 302.8734176758169Q213.5931068470697 321.06964004344815 213.5931068470697 340.51928390433665L213.5931068470697 340.51928390433665Q213.5931068470697 355.149738230805 221.67551440703892 363.79402439119986Q229.77953268240913 372.41669983619374 244.38837629347648 373.82139633725797ZM344.1434385844335 373.5188463216441L344.1434385844335 373.5188463216441Q331.37150578245 373.5188463216441 323.9806411153124 366.3656995239173Q316.5897764481748 359.1909420107896 316.5897764481748 346.4406199242071L316.5897764481748 346.4406199242071Q316.5897764481748 339.7412981499011 318.4699086880606 333.21486209880294L318.4699086880606 333.21486209880294Q315.8117906937392 327.14225107112554 315.8117906937392 319.98910427339877L315.8117906937392 319.98910427339877Q315.8117906937392 308.6218679724795 324.8450697313519 299.1347639114461L324.8450697313519 299.1347639114461Q341.96075632893377 281.0898165516218 370.4220685120339 281.0898165516218L370.4220685120339 281.0898165516218Q382.41601555958187 281.0898165516218 391.42768388179354 287.78913832592787L391.42768388179354 287.78913832592787Q401.0876736660348 294.7910101158477 402.79492018271276 306.2879107091729L402.79492018271276 306.2879107091729Q403.2703559215345 309.5727394501229 403.2703559215345 313.7652182379145L403.2703559215345 313.7652182379145Q403.2703559215345 332.2856013365605 391.7518446128083 347.9965914330782L391.7518446128083 347.9965914330782Q380.7087690429038 363.0808707829673 362.81509669088643 369.7801925572733L362.81509669088643 369.7801925572733Q353.30638191445206 373.5188463216441 344.1434385844335 373.5188463216441ZM341.0314955666913 366.970799555145L341.0314955666913 366.970799555145Q351.59913539777403 366.970799555145 363.42019672211404 361.3736242662893L363.42019672211404 361.3736242662893Q379.3040725418397 353.7450417297408 389.41788734950165 341.62143038978695L389.41788734950165 341.62143038978695Q401.39022368164854 327.2935260789325 401.39022368164854 311.9066967134296L401.39022368164854 311.9066967134296Q401.39022368164854 310.5020002123654 401.32539153544565 309.1837465729052Q401.2389486738417 307.843882218044 401.0876736660348 306.6120714401877L401.0876736660348 306.6120714401877Q399.68297716497057 296.6495316403326 390.04459809613036 290.27437059704135L390.04459809613036 290.27437059704135Q381.01131905851764 284.3530345771709 370.4220685120339 284.3530345771709L370.4220685120339 284.3530345771709Q355.6403391777587 284.3530345771709 343.19256710678997 290.90108134367L343.19256710678997 290.90108134367Q329.8155342735789 297.90295313358985 323.59164823809465 310.6532752201723L323.59164823809465 310.6532752201723Q320.6309802281594 316.5746112400428 320.6309802281594 323.72775803776955L320.6309802281594 323.72775803776955Q320.6309802281594 325.28372954664064 320.9551409591742 326.2129903088831L320.9551409591742 326.2129903088831Q323.13782321467386 322.17178652889845 326.5523162480299 317.65514701009215Q329.96680928138585 313.13850749128585 334.807609531207 308.3193179568657L334.807609531207 308.3193179568657Q344.44598860004726 298.68093888802537 352.2258461444027 295.0071172698576Q360.0057036887581 291.35490636709073 366.7050254630641 291.35490636709073L366.7050254630641 291.35490636709073Q369.8169684808063 291.35490636709073 369.8169684808063 292.2841671293332L369.8169684808063 292.2841671293332Q369.8169684808063 293.2350386069766 366.53213973985623 293.2350386069766L366.53213973985623 293.2350386069766Q355.8132249009666 293.2350386069766 341.18277057449825 308.7947536956874L341.18277057449825 308.7947536956874Q328.2595627647079 322.4743365445123 322.8136624836591 334.6195585998671L322.8136624836591 334.6195585998671Q325.4717804779805 338.8120373876586 328.88627351133647 340.69216962754456L328.88627351133647 340.69216962754456Q330.5935200280145 341.4701553819801 330.5935200280145 341.9239804054008L330.5935200280145 341.9239804054008Q330.5935200280145 342.3994161442225 329.664259265772 342.3994161442225L329.664259265772 342.3994161442225Q325.6230554857874 342.3994161442225 321.40896598259496 338.0340516332231L321.40896598259496 338.0340516332231Q319.0750087192883 344.73337340752914 319.0750087192883 346.743169939821L319.0750087192883 346.743169939821Q319.0750087192883 356.7057097396761 324.99634473915876 361.849060005111Q330.9176807590293 366.970799555145 341.0314955666913 366.970799555145ZM357.3691964098376 333.9928478532385L357.3691964098376 333.9928478532385Q353.1551069066451 328.8494975878035 353.1551069066451 322.949772283334L353.1551069066451 322.949772283334Q353.1551069066451 317.0284362634635 356.26704992438727 317.0284362634635L356.26704992438727 317.0284362634635Q358.92516791870867 317.0284362634635 360.4811394275798 322.32306153670544L360.4811394275798 322.32306153670544Q364.0469074687427 318.90856850334944 366.53213973985623 318.90856850334944L366.53213973985623 318.90856850334944Q368.0881112487273 318.90856850334944 368.0881112487273 320.6158150200274L368.0881112487273 320.6158150200274Q368.0881112487273 323.8790330455765 364.1981824765496 328.39567256438283L364.1981824765496 328.39567256438283Q360.4811394275798 333.06358709099607 357.3691964098376 333.9928478532385Z " fill="#cc313d" transform="matrix(0.9238489948969522,0,0,0.9238489948969522,0,0.4951837261064327)"/><path d="M557.1108480129433 399.1923856159797L557.1108480129433 399.1923856159797Q555.4086238263262 399.1923856159797 553.706399639709 396.4007379499276Q551.9701309693596 393.57504580014313 551.9701309693596 391.8387771297937L551.9701309693596 391.8387771297937Q551.9701309693596 390.8855315852881 552.4807982253446 390.3748643293029L552.4807982253446 390.3748643293029Q561.5366308981479 378.8678288277712 588.4998620141632 373.9654231703138L588.4998620141632 373.9654231703138Q590.9510648428918 360.96043038455895 603.2070789865352 338.4229821537481L603.2070789865352 338.4229821537481Q600.2792533855538 332.53328646805284 600.2792533855538 326.64359078235753L600.2792533855538 326.64359078235753Q600.2792533855538 317.07709085356925 605.1816590430111 317.07709085356925L605.1816590430111 317.07709085356925Q609.0967746722305 317.07709085356925 611.5479775009592 324.4306993397553L611.5479775009592 324.4306993397553L625.7445272173461 301.654939722818L639.2261427753538 280.0707370365128Q640.451744189718 277.85784559391055 640.7241000595768 277.38122282165773L640.7241000595768 277.38122282165773Q633.0981357035321 280.58140429249795 622.3400788441118 289.8755483514275L622.3400788441118 289.8755483514275Q605.8965932013903 304.1061425515467 603.6837017587881 304.1061425515467L603.6837017587881 304.1061425515467Q601.9814775721709 304.1061425515467 601.9814775721709 303.5954752955616L601.9814775721709 303.5954752955616Q601.9814775721709 303.3571639094352 603.9560576286467 301.41662833669164L603.9560576286467 301.41662833669164L625.0295930589668 283.27091850735303Q631.1576001307885 277.85784559391055 636.1621392394429 272.9554399364532Q641.2007228318296 268.0530342789958 645.115838461049 263.89960726365007L645.115838461049 263.89960726365007Q647.805352675904 260.9717816626686 650.7672227606179 257.7716001918284Q653.6950483615993 254.57141872098816 656.8952298324396 253.10750592049743L656.8952298324396 253.10750592049743Q658.8357654051831 252.39257176211828 660.0613668195474 252.39257176211828L660.0613668195474 252.39257176211828Q664.9637724770048 252.39257176211828 664.9637724770048 258.00991157795477L664.9637724770048 258.00991157795477Q664.9637724770048 261.6867158210478 662.7849255181349 263.89960726365007L662.7849255181349 263.89960726365007Q634.8344043738816 293.3140412083941 619.3782087593979 320.51558371053585L619.3782087593979 320.51558371053585Q620.1271874015096 320.27727232440947 621.3527888158739 320.27727232440947L621.3527888158739 320.27727232440947Q623.8039916446025 320.27727232440947 623.8039916446025 322.96678653926455L623.8039916446025 322.96678653926455Q623.8039916446025 327.6308808105955 618.1526073450336 334.5078665245287L618.1526073450336 334.5078665245287Q613.2502016875762 340.8741849824768 608.347796030119 343.3253878112054L608.347796030119 343.3253878112054Q601.9814775721709 359.25820619794183 599.7685861295686 372.50151036982305L599.7685861295686 372.50151036982305Q602.2197889582973 372.22915449996435 604.8071697219553 372.22915449996435Q607.360506001881 372.22915449996435 609.8117088306096 372.22915449996435L609.8117088306096 372.22915449996435Q615.9397159024313 372.22915449996435 625.7445272173461 373.7271117841874L625.7445272173461 373.7271117841874Q638.749520003101 375.66764735693096 638.749520003101 378.11885018565965L638.749520003101 378.11885018565965Q638.749520003101 379.8551188560091 636.2983171743723 379.8551188560091L636.2983171743723 379.8551188560091Q636.0600057882459 379.8551188560091 634.08542573177 379.4806295349533Q632.1448901590265 379.10614021389756 628.7063973020599 378.62951744164474L628.7063973020599 378.62951744164474Q626.0168830872049 378.11885018565965 623.2933243886174 377.8805387995332Q620.6038101737623 377.6422274134068 618.1526073450336 377.6422274134068L618.1526073450336 377.6422274134068Q608.347796030119 377.6422274134068 599.0536519711894 379.10614021389756L599.0536519711894 379.10614021389756L599.0536519711894 379.8551188560091Q599.0536519711894 386.9363714723363 602.9687676004089 386.9363714723363L602.9687676004089 386.9363714723363Q604.4326804008996 386.9363714723363 607.4966839368104 385.710770057972Q610.5606874727213 384.48516864360766 611.7862888870856 384.48516864360766L611.7862888870856 384.48516864360766Q612.024600273212 384.48516864360766 612.024600273212 384.7575245134664L612.024600273212 384.7575245134664Q612.024600273212 385.710770057972 605.1816590430111 388.91095152881223L605.1816590430111 388.91095152881223Q598.5429847152043 392.5877557719052 596.8407605285872 392.5877557719052L596.8407605285872 392.5877557719052Q588.7381734002896 392.5877557719052 588.0232392419105 381.79565442875264L588.0232392419105 381.79565442875264Q570.1158407986982 386.45974870008354 558.6088052971663 398.7157628437269L558.6088052971663 398.7157628437269Q557.6215152689285 399.1923856159797 557.1108480129433 399.1923856159797ZM717.1880105224184 394.8006472145075L717.1880105224184 394.8006472145075Q697.1017651203363 394.8006472145075 685.458551683875 383.5319230991021Q673.8153382474138 372.22915449996435 673.8153382474138 352.1429090978822L673.8153382474138 352.1429090978822Q673.8153382474138 341.5891191408559 676.7431638483953 331.3076850536885L676.7431638483953 331.3076850536885Q672.5897368330495 321.7411851249002 672.5897368330495 310.4724610094948L672.5897368330495 310.4724610094948Q672.5897368330495 292.56506256628256 686.7862865494365 277.6195342077841L686.7862865494365 277.6195342077841Q713.7495176654518 249.19239029127806 758.6201472246794 249.19239029127806L758.6201472246794 249.19239029127806Q777.4807912123972 249.19239029127806 791.7113854125164 259.74618024830426L791.7113854125164 259.74618024830426Q806.8952251571411 270.7765929775833 809.5847393719963 288.8882583231896L809.5847393719963 288.8882583231896Q810.3337180141078 294.0630198505056 810.3337180141078 300.6676496945801L810.3337180141078 300.6676496945801Q810.3337180141078 329.84377225319776 792.1880081847692 354.5941119266108L792.1880081847692 354.5941119266108Q774.7912769975421 378.35716157178604 746.6024444671624 388.91095152881223L746.6024444671624 388.91095152881223Q731.6569161086641 394.8006472145075 717.1880105224184 394.8006472145075ZM712.285604864961 384.48516864360766L712.285604864961 384.48516864360766Q728.967401893809 384.48516864360766 747.5897344954003 375.66764735693096L747.5897344954003 375.66764735693096Q772.5783855549398 363.64994459941397 788.5112039416762 344.55098922556977L788.5112039416762 344.55098922556977Q807.4058924131264 321.9794965110266 807.4058924131264 297.73982409359866L807.4058924131264 297.73982409359866Q807.4058924131264 295.5269326509964 807.2697144781969 293.45021914332347Q807.1335365432676 291.3394611519182 806.8952251571411 289.3989255791747L806.8952251571411 289.3989255791747Q804.6823337145389 273.70441857856474 789.4984939699141 263.6612958775237L789.4984939699141 263.6612958775237Q775.2678997697949 254.33310733486178 758.6201472246794 254.33310733486178L758.6201472246794 254.33310733486178Q735.3337203517569 254.33310733486178 715.7240977219276 264.6485859057616L715.7240977219276 264.6485859057616Q694.6505622916076 275.6789986350406 684.8457509766929 295.7652440371228L684.8457509766929 295.7652440371228Q680.1816567053619 305.09343257978463 680.1816567053619 316.36215669519004L680.1816567053619 316.36215669519004Q680.1816567053619 318.81335952391873 680.6582794776148 320.27727232440947L680.6582794776148 320.27727232440947Q684.0967723345814 313.9109538664614 689.4758007642915 306.7956567664018Q694.888873677734 299.68035966634216 702.4807935500464 292.0884397940298L702.4807935500464 292.0884397940298Q717.6646332946711 276.90460004940496 729.9206474383145 271.1170378149067Q742.1766615819579 265.3635200641408 752.7304515389841 265.3635200641408L752.7304515389841 265.3635200641408Q757.6328571964414 265.3635200641408 757.6328571964414 266.82743286463153L757.6328571964414 266.82743286463153Q757.6328571964414 268.3253901488546 752.4921401528577 268.3253901488546L752.4921401528577 268.3253901488546Q735.5720317378834 268.3253901488546 712.5239162510875 292.8374184361413L712.5239162510875 292.8374184361413Q692.1993594628789 314.3875766387142 683.6201495623285 333.52057649629074L683.6201495623285 333.52057649629074Q687.7735765776744 340.12520634036525 693.1526050073844 343.08707642507903L693.1526050073844 343.08707642507903Q695.8761637059719 344.3126778394434 695.8761637059719 345.02761199782253L695.8761637059719 345.02761199782253Q695.8761637059719 345.7765906399341 694.3782064217488 345.7765906399341L694.3782064217488 345.7765906399341Q688.0118879638007 345.7765906399341 681.4072581197263 338.8996049260009L681.4072581197263 338.8996049260009Q677.7304538766333 349.4533948830271 677.7304538766333 352.61953187013495L677.7304538766333 352.61953187013495Q677.7304538766333 368.3140388707449 687.0245979355627 376.4166259990425Q696.3527864782246 384.48516864360766 712.285604864961 384.48516864360766ZM738.023234566612 332.53328646805284L738.023234566612 332.53328646805284Q731.4186047225376 324.4306993397553 731.4186047225376 315.13655528082575L731.4186047225376 315.13655528082575Q731.4186047225376 305.80836673816384 736.321010379995 305.80836673816384L736.321010379995 305.80836673816384Q740.4744373953407 305.80836673816384 742.9256402240694 314.1492652525878L742.9256402240694 314.1492652525878Q748.5770245236383 308.7702368228777 752.4921401528577 308.7702368228777L752.4921401528577 308.7702368228777Q754.9433429815863 308.7702368228777 754.9433429815863 311.4597510377327L754.9433429815863 311.4597510377327Q754.9433429815863 316.6004680813165 748.8153359097646 323.71576518137607L748.8153359097646 323.71576518137607Q742.9256402240694 331.0693736675621 738.023234566612 332.53328646805284ZM865.2474702743765 332.0566636958L865.2474702743765 332.0566636958Q862.0472888035363 332.0566636958 862.0472888035363 328.379859452707L862.0472888035363 328.379859452707Q862.0472888035363 326.8819021684839 863.5112016040271 321.7411851249002L863.5112016040271 321.7411851249002Q865.2474702743765 316.6004680813165 865.2474702743765 313.1619752243499L865.2474702743765 313.1619752243499Q865.2474702743765 302.13156249507085 856.4299489876997 302.13156249507085L856.4299489876997 302.13156249507085Q851.7658547163687 302.13156249507085 845.127180388562 305.80836673816384L845.127180388562 305.80836673816384Q838.2842391583612 309.24685959513045 838.0459277722348 309.24685959513045L838.0459277722348 309.24685959513045Q837.0586377439968 309.24685959513045 837.0586377439968 308.4978809530189L837.0586377439968 308.4978809530189Q837.0586377439968 305.09343257978463 846.6251376727851 302.13156249507085L846.6251376727851 302.13156249507085Q853.978746158971 299.68035966634216 859.1194632025548 299.68035966634216L859.1194632025548 299.68035966634216Q872.3627673744361 299.68035966634216 872.3627673744361 315.6131780530785L872.3627673744361 315.6131780530785Q872.3627673744361 320.0389609382831 870.6264987040865 325.1796779818668L870.6264987040865 325.1796779818668Q868.175295875358 332.0566636958 865.2474702743765 332.0566636958ZM827.4921378152085 388.4343287565594L827.4921378152085 388.4343287565594Q810.5720294002342 388.4343287565594 810.5720294002342 369.3013288989829L810.5720294002342 369.3013288989829Q810.5720294002342 350.1683290414063 823.066354930004 330.08208363932414L823.066354930004 330.08208363932414Q837.5352605162495 307.2722795386546 855.2043475733354 307.2722795386546L855.2043475733354 307.2722795386546Q857.8938617881904 307.2722795386546 857.8938617881904 308.25956956689254L857.8938617881904 308.25956956689254Q857.8938617881904 309.00854820900406 852.9914561307331 311.9363738099855L852.9914561307331 311.9363738099855Q840.9737533732161 319.2899822961715 831.6455648305543 334.23551065466995L831.6455648305543 334.23551065466995Q821.6024421295133 350.1683290414063 821.6024421295133 362.93501044103476L821.6024421295133 362.93501044103476Q821.6024421295133 382.78294445699055 836.5479704880117 382.78294445699055L836.5479704880117 382.78294445699055Q845.8761590306735 382.78294445699055 857.1448831460789 375.4293359708045L857.1448831460789 375.4293359708045Q862.0472888035363 372.22915449996435 866.3368937538114 368.6885281918007Q870.6264987040865 365.1479018836371 874.0649915610531 360.96043038455895L874.0649915610531 360.96043038455895Q875.2905929754176 359.49651758406816 876.9928171620347 357.2836261414659Q878.7290858323842 355.07073469886365 880.6696214051276 351.90459771175574L880.6696214051276 351.90459771175574Q882.8825128477299 348.22779346866275 884.1081142620943 348.22779346866275L884.1081142620943 348.22779346866275Q884.1081142620943 348.22779346866275 884.6187815180795 348.7044162409156L884.6187815180795 348.7044162409156Q884.6187815180795 349.4533948830271 882.4058900754771 352.8918877399937L882.4058900754771 352.8918877399937Q878.218418576399 359.25820619794183 872.3627673744361 365.2500353348341Q866.4730716887408 371.2759089554587 858.6087959465697 376.65493738516886L858.6087959465697 376.65493738516886Q841.4503761454689 388.4343287565594 827.4921378152085 388.4343287565594ZM895.1385269913733 383.2595672292433L895.1385269913733 383.2595672292433Q885.572027062585 383.2595672292433 885.572027062585 371.0035530856L885.572027062585 371.0035530856Q885.572027062585 356.05802472710155 896.8747956617228 340.36351772649164L896.8747956617228 340.36351772649164Q892.9256355487711 330.8310622814357 892.9256355487711 320.0389609382831L892.9256355487711 320.0389609382831Q892.9256355487711 309.48517098125683 897.1131070478491 301.654939722818L897.1131070478491 301.654939722818Q904.9433383062881 286.1987441083345 917.1993524499313 286.1987441083345L917.1993524499313 286.1987441083345Q932.4172366782885 286.1987441083345 934.8684395070171 312.1746851961119L934.8684395070171 312.1746851961119Q940.9964465788388 312.44704106597067 944.0604501147496 315.9876673741343Q947.1244536506606 319.52829368229794 947.1244536506606 325.9286566239783L947.1244536506606 325.9286566239783Q947.1244536506606 330.8310622814357 946.0009856874932 332.9077757891086Q944.9115622080583 334.9844892967815 943.9242721798203 334.9844892967815L943.9242721798203 334.9844892967815Q942.9369821515825 334.9844892967815 942.9369821515825 333.99719926854357L942.9369821515825 333.99719926854357Q942.9369821515825 332.7715978541792 943.3114714726381 331.0693736675621Q943.6859607936939 329.3331049972126 943.6859607936939 326.8819021684839L943.6859607936939 326.8819021684839Q943.6859607936939 323.4774537952497 941.2347579649652 321.6390516737032Q938.7835551362366 319.80064955215664 935.1067508931435 319.80064955215664L935.1067508931435 319.80064955215664Q932.1448808084298 349.6917062691535 920.6378453068979 365.62452465588984L920.6378453068979 365.62452465588984L928.2297651792103 365.62452465588984Q925.0636281921024 367.5991047123657 922.6124253633739 367.5991047123657L922.6124253633739 367.5991047123657Q922.1017581073886 367.5991047123657 921.2506460140801 367.32674884250696Q920.3995339207715 367.0884374563806 919.8888666647864 367.0884374563806L919.8888666647864 367.0884374563806Q920.3995339207715 367.32674884250696 911.309656764236 375.1910245846781L911.309656764236 375.1910245846781Q901.7772013191801 383.2595672292433 895.1385269913733 383.2595672292433ZM899.5643098765779 337.67400351163656L899.5643098765779 337.67400351163656Q914.5098382350762 317.5877581095544 930.9192793940654 312.68535245209705L930.9192793940654 312.68535245209705Q926.0168737366081 291.611817021777 917.4376638360577 291.611817021777L917.4376638360577 291.611817021777Q909.6074325776189 291.611817021777 903.0028027335445 307.0339681525282L903.0028027335445 307.0339681525282Q898.8153312344664 317.349446723428 898.8153312344664 328.8564822249598L898.8153312344664 328.8564822249598Q898.8153312344664 333.52057649629074 899.5643098765779 337.67400351163656ZM912.8076140484591 364.3989232415255L912.8076140484591 364.3989232415255Q918.663265250422 359.01989481181533 924.7912723222437 343.3253878112054L924.7912723222437 343.3253878112054Q931.1916352639241 327.1542580383427 931.1916352639241 319.52829368229794L931.1916352639241 319.52829368229794Q925.7785623504817 320.27727232440947 914.2715268489499 329.6054608670713L914.2715268489499 329.6054608670713Q903.0028027335445 338.66129353987446 900.2792440349571 344.0403219695846L900.2792440349571 344.0403219695846Q905.4540055622731 362.6966990549084 912.8076140484591 364.3989232415255ZM895.8875056334848 375.90595874305734L895.8875056334848 375.90595874305734Q902.7304468636858 375.90595874305734 911.8203240202212 365.62452465588984L911.8203240202212 365.62452465588984Q903.7177368919237 364.63723462765194 898.5770198483399 346.2532134121869L898.5770198483399 346.2532134121869Q890.4744327200424 359.7348289701946 890.4744327200424 367.32674884250696L890.4744327200424 367.32674884250696Q890.4744327200424 375.90595874305734 895.8875056334848 375.90595874305734Z " fill="#f7c5cc" transform="matrix(0.9238489948969522,0,0,0.9238489948969522,0,0.4951837261064327)"/></g></svg>